<svg width="842" height="596" viewBox="0 0 842 596" fill="none" xmlns="http://www.w3.org/2000/svg">
<g clip-path="url(#clip0_2024_2)">
<path d="M279.788 162.813C275.332 162.813 272.524 164.253 268.872 166.938C262.342 171.739 255.874 176.296 249.506 181.324C242.596 186.779 236.04 192.073 229.787 198.326C224.278 203.836 219.311 209.727 215.049 216.284C210.758 222.885 207.781 230.22 204.486 237.36C200.516 245.961 195.657 254.049 191.96 262.763C188.43 271.085 185.356 278.53 183.409 287.461C181.958 294.121 181.095 300.848 181.095 307.682C181.095 316.26 182.874 322.931 184.717 331.224C189.481 352.66 201.993 372.686 214.999 390.027C223.42 401.256 230.99 412.466 239.244 423.578C243.686 429.557 252.321 436.698 259.918 437.964C283.061 441.821 306.628 441.72 329.838 444.906C339.174 446.187 346.693 447.119 356.448 447.119C372.622 447.119 387.216 445.612 402.222 439.473C409.298 436.579 416.458 430.846 423.802 429.011C429.121 427.681 434.662 426.209 440.049 425.439C449.634 424.07 456.986 416.542 465.603 412.713C474.195 408.894 483.59 401.668 490.251 395.007C502.161 383.096 504.335 367.69 504.335 351.646C504.335 336.041 502.376 321.19 500.663 305.771C497.93 281.169 481.604 259.409 469.224 239.071C464.117 230.68 458.326 222.765 453.228 214.423C447.999 205.865 443.499 196.87 437.786 188.618C433.202 181.996 429.64 175.013 422.846 170.258C415.478 165.1 404.976 162.098 396.79 158.487C386.573 153.979 375.13 150.535 364.194 148.326C342.954 144.035 321.935 140.292 300.109 142.038C284.696 143.271 273.029 159.369 265.301 170.962" stroke="black" stroke-width="16" stroke-linecap="round"/>
<path d="M344.979 303.155H364.898" stroke="black" stroke-width="16" stroke-linecap="round"/>
<path d="M437.333 297.723H451.82" stroke="black" stroke-width="16" stroke-linecap="round"/>
<path d="M374.858 356.576C356.028 356.576 412.517 356.576 431.347 356.576C435.757 356.576 440.167 356.576 444.577 356.576C446.583 356.576 451.945 357.669 450.009 354.765" stroke="black" stroke-width="16" stroke-linecap="round"/>
<path d="M259.704 174.33C259.28 170.51 253.287 166.825 250.858 164.009C245.622 157.941 239.618 151.157 233.165 146.317C227.092 141.762 219.811 137.066 213.155 133.468C211.793 132.732 207.169 128.356 206.731 129.888C204.987 135.992 216.416 171.207 211.365 172.329C205.235 173.691 198.104 174.009 192.408 177.174C189.365 178.864 177.303 180.912 187.669 178.543C201.364 175.413 218.121 178.121 232.112 178.121C236.036 178.121 244.682 176.511 246.434 180.017" stroke="black" stroke-width="16" stroke-linecap="round"/>
<path d="M449.269 195.182C449.269 175.348 465.576 162.051 478.547 148.844C480.538 146.816 510.783 117.75 515.196 121.673C517.347 123.586 505.411 145.294 504.243 148.212C500.962 156.415 490.974 169.418 490.974 178.122C490.974 184.937 528.158 178.953 500.873 189.495C481.721 196.895 423.322 215.739 441.687 206.556" stroke="black" stroke-width="16" stroke-linecap="round"/>
<path d="M206.447 372.874C194.78 372.874 184.712 378.009 174.355 382.884C171.557 384.2 149.1 397.616 148.5 396.415" stroke="black" stroke-width="16" stroke-linecap="round"/>
<path d="M494.375 392.793C494.375 398.182 497.36 402.554 499.758 407.23C506.563 420.5 514.364 433.158 521.74 446.113C540.952 479.858 557.549 514.592 569.023 551.797C574.647 570.031 578.43 588.821 584.466 606.928C585.523 610.098 586.221 613.606 587.635 616.435" stroke="black" stroke-width="16" stroke-linecap="round"/>
<g filter="url(#filter0_f_2024_2)">
<path d="M306 366L259.5 192V180.5L209 203.5L178 327.5L209 366L159 397L108.5 569L277 604L317.5 534.5L306 492L414 468.5V430L306 366Z" fill="#585858" fill-opacity="0.62" style="mix-blend-mode:darken"/>
</g>
<path d="M574.964 197.148C561.691 209.976 547.275 222.193 535.074 236.031C530.342 241.398 516.705 257.914 521.851 252.941" stroke="black" stroke-width="15" stroke-linecap="round"/>
<path d="M586.186 238.065L592.611 244.713" stroke="black" stroke-width="15" stroke-linecap="round"/>
<path d="M578.502 262.635C574.818 266.195 569.652 269.786 568.123 274.809C566.799 279.161 558.831 290.218 562.103 287.057" stroke="black" stroke-width="15" stroke-linecap="round"/>
<path d="M591.992 281.028C592.06 280.757 608.91 297.054 610.817 299.027C614.307 302.638 617.798 306.25 621.288 309.861" stroke="black" stroke-width="15" stroke-linecap="round"/>
<path d="M649.407 279.827C645.481 275.764 641.554 271.701 637.627 267.639C636.039 265.995 633.47 261.945 631.072 261.513C626.501 260.689 620.164 266.89 617.335 269.472C606.462 279.396 594.788 289.797 587.066 302.457C579.665 314.592 574.398 328.726 570.042 342.246C569.447 344.091 562.103 372.301 565.025 371.382" stroke="black" stroke-width="15" stroke-linecap="round"/>
<path d="M610.009 332.19C614.092 336.415 618.547 342.911 624.159 345.024C629.162 346.908 633.072 341.331 636.057 338.446C640.359 334.289 644.367 330.598 643.409 323.88C642.61 318.274 636.813 309.649 631.133 307.647C622.719 304.682 615.491 312.605 610.216 317.704C599.179 328.371 597.123 341.58 601.691 356.104C605.092 366.917 609.317 374.342 617.065 382.359C621.181 386.618 624.054 384.012 628.741 384.092" stroke="black" stroke-width="15" stroke-linecap="round"/>
</g>
<defs>
<filter id="filter0_f_2024_2" x="76.5" y="148.5" width="369.5" height="487.5" filterUnits="userSpaceOnUse" color-interpolation-filters="sRGB">
<feFlood flood-opacity="0" result="BackgroundImageFix"/>
<feBlend mode="normal" in="SourceGraphic" in2="BackgroundImageFix" result="shape"/>
<feGaussianBlur stdDeviation="16" result="effect1_foregroundBlur_2024_2"/>
</filter>
<clipPath id="clip0_2024_2">
<rect width="512" height="512" fill="white" transform="translate(165 42)"/>
</clipPath>
</defs>
</svg>
